<mxfile host="app.diagrams.net" modified="2021-07-27T17:45:05.569Z" agent="5.0 (Windows NT 10.0; Win64; x64) AppleWebKit/537.36 (KHTML, like Gecko) Chrome/92.0.4515.107 Safari/537.36" etag="kEw_fsxy9D_277XwPnzO" version="14.8.4" type="github">
  <diagram id="7p46W-EN9GYlPAzoYcba" name="Page-1">
    <mxGraphModel dx="798" dy="423" grid="1" gridSize="10" guides="1" tooltips="1" connect="1" arrows="1" fold="1" page="1" pageScale="1" pageWidth="827" pageHeight="1169" math="0" shadow="0">
      <root>
        <mxCell id="0" />
        <mxCell id="1" parent="0" />
        <mxCell id="sO5AbAzET7fi1nhG9wPH-10" value="" style="endArrow=classic;html=1;entryX=1;entryY=0.5;entryDx=0;entryDy=0;" parent="1" target="sO5AbAzET7fi1nhG9wPH-5" edge="1">
          <mxGeometry width="50" height="50" relative="1" as="geometry">
            <mxPoint x="255" y="110" as="sourcePoint" />
            <mxPoint x="440" y="170" as="targetPoint" />
            <Array as="points">
              <mxPoint x="255" y="260" />
            </Array>
          </mxGeometry>
        </mxCell>
        <mxCell id="sO5AbAzET7fi1nhG9wPH-1" value="Pega&lt;br&gt;(UMB2BPRD)&lt;br&gt;Oracle DB" style="rounded=0;whiteSpace=wrap;html=1;" parent="1" vertex="1">
          <mxGeometry x="40" y="80" width="120" height="60" as="geometry" />
        </mxCell>
        <mxCell id="sO5AbAzET7fi1nhG9wPH-20" style="edgeStyle=orthogonalEdgeStyle;rounded=0;orthogonalLoop=1;jettySize=auto;html=1;entryX=0.5;entryY=0;entryDx=0;entryDy=0;" parent="1" source="sO5AbAzET7fi1nhG9wPH-2" target="sO5AbAzET7fi1nhG9wPH-16" edge="1">
          <mxGeometry relative="1" as="geometry" />
        </mxCell>
        <mxCell id="sO5AbAzET7fi1nhG9wPH-2" value="SIFT RTM&lt;br&gt;(Oracle DB)" style="rounded=0;whiteSpace=wrap;html=1;" parent="1" vertex="1">
          <mxGeometry x="354" y="80" width="120" height="60" as="geometry" />
        </mxCell>
        <mxCell id="sO5AbAzET7fi1nhG9wPH-3" value="" style="endArrow=classic;html=1;entryX=0;entryY=0.5;entryDx=0;entryDy=0;" parent="1" source="sO5AbAzET7fi1nhG9wPH-1" target="sO5AbAzET7fi1nhG9wPH-2" edge="1">
          <mxGeometry width="50" height="50" relative="1" as="geometry">
            <mxPoint x="160" y="120" as="sourcePoint" />
            <mxPoint x="210" y="70" as="targetPoint" />
          </mxGeometry>
        </mxCell>
        <mxCell id="sO5AbAzET7fi1nhG9wPH-5" value="/streamslz/.../processed" style="rounded=0;whiteSpace=wrap;html=1;" parent="1" vertex="1">
          <mxGeometry x="40" y="230" width="150" height="60" as="geometry" />
        </mxCell>
        <mxCell id="sO5AbAzET7fi1nhG9wPH-11" value="Redis DB" style="rounded=0;whiteSpace=wrap;html=1;" parent="1" vertex="1">
          <mxGeometry x="600" y="80" width="120" height="60" as="geometry" />
        </mxCell>
        <mxCell id="sO5AbAzET7fi1nhG9wPH-12" value="" style="endArrow=classic;html=1;exitX=1;exitY=0.5;exitDx=0;exitDy=0;entryX=0;entryY=0.5;entryDx=0;entryDy=0;" parent="1" source="sO5AbAzET7fi1nhG9wPH-2" target="sO5AbAzET7fi1nhG9wPH-11" edge="1">
          <mxGeometry width="50" height="50" relative="1" as="geometry">
            <mxPoint x="390" y="220" as="sourcePoint" />
            <mxPoint x="440" y="170" as="targetPoint" />
            <Array as="points" />
          </mxGeometry>
        </mxCell>
        <mxCell id="sO5AbAzET7fi1nhG9wPH-13" value="Only UCG Data&lt;br&gt;" style="text;html=1;strokeColor=none;fillColor=none;align=center;verticalAlign=middle;whiteSpace=wrap;rounded=0;" parent="1" vertex="1">
          <mxGeometry x="480" y="90" width="110" height="20" as="geometry" />
        </mxCell>
        <mxCell id="sO5AbAzET7fi1nhG9wPH-14" value="UCG File Dump" style="rounded=0;whiteSpace=wrap;html=1;" parent="1" vertex="1">
          <mxGeometry x="600" y="230" width="120" height="60" as="geometry" />
        </mxCell>
        <mxCell id="sO5AbAzET7fi1nhG9wPH-15" value="" style="endArrow=classic;html=1;exitX=0.5;exitY=1;exitDx=0;exitDy=0;entryX=0.5;entryY=0;entryDx=0;entryDy=0;" parent="1" source="sO5AbAzET7fi1nhG9wPH-11" target="sO5AbAzET7fi1nhG9wPH-14" edge="1">
          <mxGeometry width="50" height="50" relative="1" as="geometry">
            <mxPoint x="390" y="190" as="sourcePoint" />
            <mxPoint x="440" y="140" as="targetPoint" />
          </mxGeometry>
        </mxCell>
        <mxCell id="sO5AbAzET7fi1nhG9wPH-16" value="&lt;font style=&quot;font-size: 16px&quot;&gt;&lt;b&gt;OfferCatalogue Table&lt;br&gt;ContactSync Table&lt;/b&gt;&lt;/font&gt;" style="text;html=1;strokeColor=none;fillColor=none;align=center;verticalAlign=middle;whiteSpace=wrap;rounded=0;" parent="1" vertex="1">
          <mxGeometry x="340" y="225" width="174" height="70" as="geometry" />
        </mxCell>
        <mxCell id="sO5AbAzET7fi1nhG9wPH-21" value="Data sent to SIFT is backed up as .dsv files on GPFS" style="text;html=1;strokeColor=none;fillColor=none;align=center;verticalAlign=middle;whiteSpace=wrap;rounded=0;" parent="1" vertex="1">
          <mxGeometry x="110" y="150" width="150" height="60" as="geometry" />
        </mxCell>
        <mxCell id="sO5AbAzET7fi1nhG9wPH-22" value="&lt;font style=&quot;font-size: 24px&quot;&gt;1&lt;/font&gt;" style="ellipse;whiteSpace=wrap;html=1;labelBackgroundColor=none;fillColor=#FF9999;" parent="1" vertex="1">
          <mxGeometry x="90" y="295" width="45" height="45" as="geometry" />
        </mxCell>
        <mxCell id="sO5AbAzET7fi1nhG9wPH-23" value="&lt;font style=&quot;font-size: 24px&quot;&gt;2&lt;/font&gt;" style="ellipse;whiteSpace=wrap;html=1;labelBackgroundColor=none;fillColor=#d5e8d4;" parent="1" vertex="1">
          <mxGeometry x="400" y="290" width="57" height="52.5" as="geometry" />
        </mxCell>
        <mxCell id="sO5AbAzET7fi1nhG9wPH-24" value="&lt;font style=&quot;font-size: 24px&quot;&gt;3&lt;/font&gt;" style="ellipse;whiteSpace=wrap;html=1;labelBackgroundColor=none;fillColor=#ffe6cc;" parent="1" vertex="1">
          <mxGeometry x="640" y="295" width="50" height="45" as="geometry" />
        </mxCell>
        <mxCell id="sO5AbAzET7fi1nhG9wPH-25" value="&lt;span style=&quot;font-size: 11.0pt ; font-family: &amp;#34;calibri&amp;#34; , sans-serif&quot;&gt;offerCatalogue comparison between files and Table&lt;/span&gt;" style="text;html=1;strokeColor=none;fillColor=none;align=center;verticalAlign=middle;whiteSpace=wrap;rounded=0;labelBackgroundColor=none;" parent="1" vertex="1">
          <mxGeometry x="180" y="360" width="210" height="30" as="geometry" />
        </mxCell>
        <mxCell id="sO5AbAzET7fi1nhG9wPH-26" value="&lt;span style=&quot;font-size: 11.0pt ; font-family: &amp;#34;calibri&amp;#34; , sans-serif&quot;&gt;contactsync comparison between files and Table&lt;/span&gt;" style="text;html=1;strokeColor=none;fillColor=none;align=center;verticalAlign=middle;whiteSpace=wrap;rounded=0;labelBackgroundColor=none;" parent="1" vertex="1">
          <mxGeometry x="180" y="440" width="190" height="30" as="geometry" />
        </mxCell>
        <mxCell id="sO5AbAzET7fi1nhG9wPH-28" value="" style="shape=flexArrow;endArrow=classic;startArrow=classic;html=1;endWidth=15.294117647058824;endSize=3.2470588235294118;" parent="1" edge="1">
          <mxGeometry width="50" height="50" relative="1" as="geometry">
            <mxPoint x="410" y="340" as="sourcePoint" />
            <mxPoint x="140" y="350" as="targetPoint" />
            <Array as="points">
              <mxPoint x="410" y="400" />
              <mxPoint x="140" y="400" />
            </Array>
          </mxGeometry>
        </mxCell>
        <mxCell id="sO5AbAzET7fi1nhG9wPH-29" value="" style="shape=flexArrow;endArrow=classic;startArrow=classic;html=1;endWidth=15.294117647058824;endSize=3.8705882352941177;width=10.588235294117647;" parent="1" edge="1">
          <mxGeometry width="50" height="50" relative="1" as="geometry">
            <mxPoint x="450" y="340" as="sourcePoint" />
            <mxPoint x="110" y="350" as="targetPoint" />
            <Array as="points">
              <mxPoint x="450" y="480" />
              <mxPoint x="110" y="480" />
            </Array>
          </mxGeometry>
        </mxCell>
        <mxCell id="sO5AbAzET7fi1nhG9wPH-30" value="" style="shape=flexArrow;endArrow=classic;startArrow=classic;html=1;endWidth=19.723183391003463;endSize=3.611764705882353;width=8.23529411764706;" parent="1" edge="1">
          <mxGeometry width="50" height="50" relative="1" as="geometry">
            <mxPoint x="670" y="340" as="sourcePoint" />
            <mxPoint x="70" y="350" as="targetPoint" />
            <Array as="points">
              <mxPoint x="670" y="520" />
              <mxPoint x="70" y="520" />
            </Array>
          </mxGeometry>
        </mxCell>
        <mxCell id="sO5AbAzET7fi1nhG9wPH-31" value="&lt;span style=&quot;font-size: 11.0pt ; font-family: &amp;#34;calibri&amp;#34; , sans-serif&quot;&gt;UCG comparison between file and file&lt;/span&gt;" style="text;html=1;strokeColor=none;fillColor=none;align=center;verticalAlign=middle;whiteSpace=wrap;rounded=0;labelBackgroundColor=none;" parent="1" vertex="1">
          <mxGeometry x="230" y="530" width="266" height="30" as="geometry" />
        </mxCell>
        <mxCell id="sO5AbAzET7fi1nhG9wPH-32" value="GPFS&amp;nbsp;" style="text;html=1;strokeColor=none;fillColor=none;align=center;verticalAlign=middle;whiteSpace=wrap;rounded=0;labelBackgroundColor=none;rotation=-90;" parent="1" vertex="1">
          <mxGeometry x="10" y="247.5" width="40" height="25" as="geometry" />
        </mxCell>
        <mxCell id="qSkTwoKB_WEL0cLufjZC-1" value="" style="endArrow=classic;html=1;entryX=1;entryY=0.25;entryDx=0;entryDy=0;" parent="1" target="sO5AbAzET7fi1nhG9wPH-1" edge="1">
          <mxGeometry width="50" height="50" relative="1" as="geometry">
            <mxPoint x="350" y="95" as="sourcePoint" />
            <mxPoint x="390" y="180" as="targetPoint" />
          </mxGeometry>
        </mxCell>
        <mxCell id="qSkTwoKB_WEL0cLufjZC-2" value=".ogg" style="rounded=0;whiteSpace=wrap;html=1;" parent="1" vertex="1">
          <mxGeometry x="190" y="60" width="50" height="30" as="geometry" />
        </mxCell>
        <mxCell id="32TVab88cJXj2QjGuyJ7-1" value="Driver" style="aspect=fixed;pointerEvents=1;shadow=0;dashed=0;html=1;strokeColor=none;labelPosition=center;verticalLabelPosition=bottom;verticalAlign=top;align=center;shape=mxgraph.azure.computer;fillColor=#007FFF;fontSize=15;fontStyle=1" vertex="1" parent="1">
          <mxGeometry x="330" y="820.2" width="110" height="99" as="geometry" />
        </mxCell>
        <mxCell id="32TVab88cJXj2QjGuyJ7-2" value="&lt;b&gt;&lt;font style=&quot;font-size: 15px&quot;&gt;Executor 01&lt;/font&gt;&lt;/b&gt;" style="aspect=fixed;pointerEvents=1;shadow=0;dashed=0;html=1;strokeColor=none;labelPosition=center;verticalLabelPosition=bottom;verticalAlign=top;align=center;fillColor=#00188D;shape=mxgraph.azure.computer" vertex="1" parent="1">
          <mxGeometry x="120" y="981.1" width="110" height="99" as="geometry" />
        </mxCell>
        <mxCell id="32TVab88cJXj2QjGuyJ7-3" value="&lt;font style=&quot;font-size: 15px&quot;&gt;&lt;b&gt;Executor 03&lt;/b&gt;&lt;/font&gt;" style="aspect=fixed;pointerEvents=1;shadow=0;dashed=0;html=1;strokeColor=none;labelPosition=center;verticalLabelPosition=bottom;verticalAlign=top;align=center;fillColor=#00188D;shape=mxgraph.azure.computer" vertex="1" parent="1">
          <mxGeometry x="540" y="981.1" width="108" height="97.2" as="geometry" />
        </mxCell>
        <mxCell id="32TVab88cJXj2QjGuyJ7-4" value="&lt;font style=&quot;font-size: 15px&quot;&gt;&lt;b&gt;Executor 02&lt;/b&gt;&lt;/font&gt;" style="aspect=fixed;pointerEvents=1;shadow=0;dashed=0;html=1;strokeColor=none;labelPosition=center;verticalLabelPosition=bottom;verticalAlign=top;align=center;fillColor=#00188D;shape=mxgraph.azure.computer" vertex="1" parent="1">
          <mxGeometry x="330" y="981.1" width="110" height="99" as="geometry" />
        </mxCell>
        <mxCell id="32TVab88cJXj2QjGuyJ7-5" value="Task" style="rounded=0;whiteSpace=wrap;html=1;fillColor=#4D9900;fontStyle=1;fontSize=15;fontColor=#FFFFFF;strokeWidth=2;" vertex="1" parent="1">
          <mxGeometry x="176" y="1021" width="45" height="30" as="geometry" />
        </mxCell>
        <mxCell id="32TVab88cJXj2QjGuyJ7-6" value="Slot" style="rounded=0;whiteSpace=wrap;html=1;fontSize=17;strokeWidth=2;" vertex="1" parent="1">
          <mxGeometry x="129" y="1021" width="45" height="30" as="geometry" />
        </mxCell>
        <mxCell id="32TVab88cJXj2QjGuyJ7-9" value="Slot" style="rounded=0;whiteSpace=wrap;html=1;fontSize=17;strokeWidth=2;" vertex="1" parent="1">
          <mxGeometry x="339" y="1021" width="45" height="30" as="geometry" />
        </mxCell>
        <mxCell id="32TVab88cJXj2QjGuyJ7-10" value="Slot" style="rounded=0;whiteSpace=wrap;html=1;fontSize=17;strokeWidth=2;" vertex="1" parent="1">
          <mxGeometry x="386" y="1021" width="45" height="30" as="geometry" />
        </mxCell>
        <mxCell id="32TVab88cJXj2QjGuyJ7-12" value="Task" style="rounded=0;whiteSpace=wrap;html=1;fillColor=#4D9900;fontStyle=1;fontSize=15;fontColor=#FFFFFF;strokeWidth=2;" vertex="1" parent="1">
          <mxGeometry x="549" y="1021" width="45" height="30" as="geometry" />
        </mxCell>
        <mxCell id="32TVab88cJXj2QjGuyJ7-13" value="Task" style="rounded=0;whiteSpace=wrap;html=1;fillColor=#4D9900;fontStyle=1;fontSize=15;fontColor=#FFFFFF;strokeWidth=2;" vertex="1" parent="1">
          <mxGeometry x="595" y="1020.7" width="45" height="30" as="geometry" />
        </mxCell>
        <mxCell id="32TVab88cJXj2QjGuyJ7-16" value="SparkSession" style="rounded=0;whiteSpace=wrap;html=1;fontSize=12;strokeWidth=2;fillColor=#FFE6CC;" vertex="1" parent="1">
          <mxGeometry x="345" y="854.7" width="80" height="30" as="geometry" />
        </mxCell>
        <mxCell id="32TVab88cJXj2QjGuyJ7-17" value="" style="endArrow=classic;startArrow=classic;html=1;fontSize=12;fontColor=#FFFFFF;entryX=0.5;entryY=1;entryDx=0;entryDy=0;entryPerimeter=0;exitX=0.5;exitY=0;exitDx=0;exitDy=0;exitPerimeter=0;" edge="1" parent="1" source="32TVab88cJXj2QjGuyJ7-2" target="32TVab88cJXj2QjGuyJ7-1">
          <mxGeometry width="50" height="50" relative="1" as="geometry">
            <mxPoint x="340" y="1020" as="sourcePoint" />
            <mxPoint x="390" y="970" as="targetPoint" />
          </mxGeometry>
        </mxCell>
        <mxCell id="32TVab88cJXj2QjGuyJ7-18" value="" style="endArrow=classic;startArrow=classic;html=1;fontSize=12;fontColor=#FFFFFF;exitX=0.5;exitY=0;exitDx=0;exitDy=0;exitPerimeter=0;" edge="1" parent="1" source="32TVab88cJXj2QjGuyJ7-4">
          <mxGeometry width="50" height="50" relative="1" as="geometry">
            <mxPoint x="185" y="991.0999999999999" as="sourcePoint" />
            <mxPoint x="385" y="920" as="targetPoint" />
          </mxGeometry>
        </mxCell>
        <mxCell id="32TVab88cJXj2QjGuyJ7-19" value="" style="endArrow=classic;startArrow=classic;html=1;fontSize=12;fontColor=#FFFFFF;entryX=0.5;entryY=1;entryDx=0;entryDy=0;entryPerimeter=0;exitX=0.5;exitY=0;exitDx=0;exitDy=0;exitPerimeter=0;" edge="1" parent="1" source="32TVab88cJXj2QjGuyJ7-3" target="32TVab88cJXj2QjGuyJ7-1">
          <mxGeometry width="50" height="50" relative="1" as="geometry">
            <mxPoint x="195" y="1001.0999999999999" as="sourcePoint" />
            <mxPoint x="405" y="939.2" as="targetPoint" />
          </mxGeometry>
        </mxCell>
      </root>
    </mxGraphModel>
  </diagram>
</mxfile>
